<mxfile host="app.diagrams.net" agent="Mozilla/5.0 (Windows NT 10.0; Win64; x64) AppleWebKit/537.36 (KHTML, like Gecko) Chrome/129.0.0.0 Safari/537.36" version="24.7.17">
  <diagram name="Page-1" id="ctMq2p94Id5YSrw-uo0k">
    <mxGraphModel dx="1067" dy="899" grid="1" gridSize="10" guides="1" tooltips="1" connect="1" arrows="1" fold="1" page="1" pageScale="1" pageWidth="850" pageHeight="1100" math="0" shadow="0">
      <root>
        <mxCell id="0" />
        <mxCell id="1" parent="0" />
        <mxCell id="kllssjLPhVET7LkKiRfW-1" value="Home" style="swimlane;fontStyle=2;align=center;verticalAlign=top;childLayout=stackLayout;horizontal=1;startSize=26;horizontalStack=0;resizeParent=1;resizeLast=0;collapsible=1;marginBottom=0;rounded=0;shadow=0;strokeWidth=1;spacingTop=0;" vertex="1" parent="1">
          <mxGeometry x="40" y="40" width="290" height="260" as="geometry">
            <mxRectangle x="150" y="10" width="160" height="26" as="alternateBounds" />
          </mxGeometry>
        </mxCell>
        <mxCell id="kllssjLPhVET7LkKiRfW-2" value="+ roles&#xa;+ StartCSE360" style="text;align=left;verticalAlign=top;spacingLeft=4;spacingRight=4;overflow=hidden;rotatable=0;points=[[0,0.5],[1,0.5]];portConstraint=eastwest;rounded=0;shadow=0;html=0;" vertex="1" parent="kllssjLPhVET7LkKiRfW-1">
          <mxGeometry y="26" width="290" height="26" as="geometry" />
        </mxCell>
        <mxCell id="kllssjLPhVET7LkKiRfW-11" value="" style="line;html=1;strokeWidth=1;align=left;verticalAlign=middle;spacingTop=-1;spacingLeft=3;spacingRight=3;rotatable=0;labelPosition=right;points=[];portConstraint=eastwest;" vertex="1" parent="kllssjLPhVET7LkKiRfW-1">
          <mxGeometry y="52" width="290" height="28" as="geometry" />
        </mxCell>
        <mxCell id="kllssjLPhVET7LkKiRfW-12" value="+ void start(Stage)&#xa;+ void firstAdminlogin(VBox, StartCSE360)&#xa;+ void userLogin(VBox, StartCSE360)&#xa;+ void userdetail(VBox, String, StartCSE360)&#xa;+ void createUser(VBox, StartCSE360)&#xa;+ void loginUserRoles(VBox, StartCSWE360, String)&#xa;+ String roleHelper (Boolean, Boolean, Boolean)&#xa;+ void main(String[ ] args)" style="text;align=left;verticalAlign=top;spacingLeft=5;spacingRight=4;overflow=hidden;rotatable=0;points=[[0,0.5],[1,0.5]];portConstraint=eastwest;spacingTop=13;spacing=7;labelBorderColor=none;labelBackgroundColor=none;" vertex="1" parent="kllssjLPhVET7LkKiRfW-1">
          <mxGeometry y="80" width="290" height="180" as="geometry" />
        </mxCell>
        <mxCell id="kllssjLPhVET7LkKiRfW-13" value="Student" style="swimlane;fontStyle=2;align=center;verticalAlign=top;childLayout=stackLayout;horizontal=1;startSize=26;horizontalStack=0;resizeParent=1;resizeLast=0;collapsible=1;marginBottom=0;rounded=0;shadow=0;strokeWidth=1;" vertex="1" parent="1">
          <mxGeometry x="515" y="220" width="160" height="138" as="geometry">
            <mxRectangle x="130" y="380" width="160" height="26" as="alternateBounds" />
          </mxGeometry>
        </mxCell>
        <mxCell id="kllssjLPhVET7LkKiRfW-14" value="" style="line;html=1;strokeWidth=1;align=left;verticalAlign=middle;spacingTop=-1;spacingLeft=3;spacingRight=3;rotatable=0;labelPosition=right;points=[];portConstraint=eastwest;" vertex="1" parent="kllssjLPhVET7LkKiRfW-13">
          <mxGeometry y="26" width="160" height="8" as="geometry" />
        </mxCell>
        <mxCell id="kllssjLPhVET7LkKiRfW-21" value="Instructor" style="swimlane;fontStyle=2;align=center;verticalAlign=top;childLayout=stackLayout;horizontal=1;startSize=26;horizontalStack=0;resizeParent=1;resizeLast=0;collapsible=1;marginBottom=0;rounded=0;shadow=0;strokeWidth=1;" vertex="1" parent="1">
          <mxGeometry x="515" y="50" width="160" height="138" as="geometry">
            <mxRectangle x="130" y="380" width="160" height="26" as="alternateBounds" />
          </mxGeometry>
        </mxCell>
        <mxCell id="kllssjLPhVET7LkKiRfW-22" value="" style="line;html=1;strokeWidth=1;align=left;verticalAlign=middle;spacingTop=-1;spacingLeft=3;spacingRight=3;rotatable=0;labelPosition=right;points=[];portConstraint=eastwest;" vertex="1" parent="kllssjLPhVET7LkKiRfW-21">
          <mxGeometry y="26" width="160" height="8" as="geometry" />
        </mxCell>
        <mxCell id="kllssjLPhVET7LkKiRfW-15" value="Admin" style="swimlane;fontStyle=2;align=center;verticalAlign=top;childLayout=stackLayout;horizontal=1;startSize=26;horizontalStack=0;resizeParent=1;resizeLast=0;collapsible=1;marginBottom=0;rounded=0;shadow=0;strokeWidth=1;" vertex="1" parent="1">
          <mxGeometry x="450" y="398" width="290" height="440" as="geometry">
            <mxRectangle x="340" y="380" width="170" height="26" as="alternateBounds" />
          </mxGeometry>
        </mxCell>
        <mxCell id="kllssjLPhVET7LkKiRfW-38" value="- String ()" style="text;html=1;align=center;verticalAlign=middle;resizable=0;points=[];autosize=1;strokeColor=none;fillColor=none;" vertex="1" parent="kllssjLPhVET7LkKiRfW-15">
          <mxGeometry y="26" width="290" height="30" as="geometry" />
        </mxCell>
        <mxCell id="kllssjLPhVET7LkKiRfW-16" value="" style="line;html=1;strokeWidth=1;align=left;verticalAlign=middle;spacingTop=-1;spacingLeft=3;spacingRight=3;rotatable=0;labelPosition=right;points=[];portConstraint=eastwest;" vertex="1" parent="kllssjLPhVET7LkKiRfW-15">
          <mxGeometry y="56" width="290" height="124" as="geometry" />
        </mxCell>
        <mxCell id="kllssjLPhVET7LkKiRfW-17" value="&lt;div&gt;+ void invite()&lt;/div&gt;&lt;div&gt;&lt;br&gt;&lt;/div&gt;&lt;div&gt;+ void reset(User)&lt;br&gt;&lt;/div&gt;" style="text;html=1;align=center;verticalAlign=middle;resizable=0;points=[];autosize=1;strokeColor=none;fillColor=none;" vertex="1" parent="kllssjLPhVET7LkKiRfW-15">
          <mxGeometry y="180" width="290" height="60" as="geometry" />
        </mxCell>
        <mxCell id="kllssjLPhVET7LkKiRfW-18" value="&lt;div&gt;&lt;br&gt;&lt;/div&gt;&lt;div&gt;+ void delete(User)&lt;br&gt;&lt;/div&gt;&lt;div&gt;&lt;br&gt;&lt;/div&gt;&lt;div&gt;+ void addRole(User, enum)&lt;br&gt;&lt;/div&gt;" style="text;html=1;align=center;verticalAlign=middle;resizable=0;points=[];autosize=1;strokeColor=none;fillColor=none;" vertex="1" parent="kllssjLPhVET7LkKiRfW-15">
          <mxGeometry y="240" width="290" height="70" as="geometry" />
        </mxCell>
        <mxCell id="kllssjLPhVET7LkKiRfW-19" value="&lt;div&gt;&lt;br&gt;&lt;/div&gt;&lt;div&gt;+ void showusers()&lt;/div&gt;&lt;div&gt;&lt;br&gt;&lt;/div&gt;&lt;div&gt;+ void removeroles(User, enum)&lt;br&gt;&lt;/div&gt;" style="text;html=1;align=center;verticalAlign=middle;resizable=0;points=[];autosize=1;strokeColor=none;fillColor=none;" vertex="1" parent="kllssjLPhVET7LkKiRfW-15">
          <mxGeometry y="310" width="290" height="70" as="geometry" />
        </mxCell>
        <mxCell id="kllssjLPhVET7LkKiRfW-20" value="+ void editroles(String, BorderPane)" style="text;html=1;align=center;verticalAlign=middle;resizable=0;points=[];autosize=1;strokeColor=none;fillColor=none;" vertex="1" parent="kllssjLPhVET7LkKiRfW-15">
          <mxGeometry y="380" width="290" height="30" as="geometry" />
        </mxCell>
        <mxCell id="kllssjLPhVET7LkKiRfW-37" value="+ void setUsers()" style="text;html=1;align=center;verticalAlign=middle;resizable=0;points=[];autosize=1;strokeColor=none;fillColor=none;" vertex="1" parent="kllssjLPhVET7LkKiRfW-15">
          <mxGeometry y="410" width="290" height="30" as="geometry" />
        </mxCell>
        <mxCell id="kllssjLPhVET7LkKiRfW-39" value="DatabaseHelper" style="swimlane;fontStyle=2;align=center;verticalAlign=top;childLayout=stackLayout;horizontal=1;startSize=26;horizontalStack=0;resizeParent=1;resizeLast=0;collapsible=1;marginBottom=0;rounded=0;shadow=0;strokeWidth=1;" vertex="1" parent="1">
          <mxGeometry x="40" y="510" width="320" height="490" as="geometry">
            <mxRectangle x="130" y="380" width="160" height="26" as="alternateBounds" />
          </mxGeometry>
        </mxCell>
        <mxCell id="kllssjLPhVET7LkKiRfW-42" value="- Connection: connection" style="text;html=1;align=center;verticalAlign=middle;resizable=0;points=[];autosize=1;strokeColor=none;fillColor=none;" vertex="1" parent="kllssjLPhVET7LkKiRfW-39">
          <mxGeometry y="26" width="320" height="30" as="geometry" />
        </mxCell>
        <mxCell id="kllssjLPhVET7LkKiRfW-43" value="- Statement: statement" style="text;html=1;align=center;verticalAlign=middle;resizable=0;points=[];autosize=1;strokeColor=none;fillColor=none;" vertex="1" parent="kllssjLPhVET7LkKiRfW-39">
          <mxGeometry y="56" width="320" height="30" as="geometry" />
        </mxCell>
        <mxCell id="kllssjLPhVET7LkKiRfW-40" value="" style="line;html=1;strokeWidth=1;align=left;verticalAlign=middle;spacingTop=-1;spacingLeft=3;spacingRight=3;rotatable=0;labelPosition=right;points=[];portConstraint=eastwest;" vertex="1" parent="kllssjLPhVET7LkKiRfW-39">
          <mxGeometry y="86" width="320" height="64" as="geometry" />
        </mxCell>
        <mxCell id="kllssjLPhVET7LkKiRfW-41" value="+ void connectToDatabase()" style="text;html=1;align=center;verticalAlign=middle;resizable=0;points=[];autosize=1;strokeColor=none;fillColor=none;" vertex="1" parent="kllssjLPhVET7LkKiRfW-39">
          <mxGeometry y="150" width="320" height="30" as="geometry" />
        </mxCell>
        <mxCell id="kllssjLPhVET7LkKiRfW-44" value="- void createTables()" style="text;html=1;align=center;verticalAlign=middle;resizable=0;points=[];autosize=1;strokeColor=none;fillColor=none;" vertex="1" parent="kllssjLPhVET7LkKiRfW-39">
          <mxGeometry y="180" width="320" height="30" as="geometry" />
        </mxCell>
        <mxCell id="kllssjLPhVET7LkKiRfW-45" value="+ boolean isDatabaseEmpty()" style="text;html=1;align=center;verticalAlign=middle;resizable=0;points=[];autosize=1;strokeColor=none;fillColor=none;" vertex="1" parent="kllssjLPhVET7LkKiRfW-39">
          <mxGeometry y="210" width="320" height="30" as="geometry" />
        </mxCell>
        <mxCell id="kllssjLPhVET7LkKiRfW-47" value="+ boolean acces(String)" style="text;html=1;align=center;verticalAlign=middle;resizable=0;points=[];autosize=1;strokeColor=none;fillColor=none;" vertex="1" parent="kllssjLPhVET7LkKiRfW-39">
          <mxGeometry y="240" width="320" height="30" as="geometry" />
        </mxCell>
        <mxCell id="kllssjLPhVET7LkKiRfW-48" value="+ String role(String)" style="text;html=1;align=center;verticalAlign=middle;resizable=0;points=[];autosize=1;strokeColor=none;fillColor=none;" vertex="1" parent="kllssjLPhVET7LkKiRfW-39">
          <mxGeometry y="270" width="320" height="30" as="geometry" />
        </mxCell>
        <mxCell id="kllssjLPhVET7LkKiRfW-49" value="+ void register(String, String, String)" style="text;html=1;align=center;verticalAlign=middle;resizable=0;points=[];autosize=1;strokeColor=none;fillColor=none;" vertex="1" parent="kllssjLPhVET7LkKiRfW-39">
          <mxGeometry y="300" width="320" height="30" as="geometry" />
        </mxCell>
        <mxCell id="kllssjLPhVET7LkKiRfW-51" value="+ void update(String, String, String, String, String, String)" style="text;html=1;align=center;verticalAlign=middle;resizable=0;points=[];autosize=1;strokeColor=none;fillColor=none;" vertex="1" parent="kllssjLPhVET7LkKiRfW-39">
          <mxGeometry y="330" width="320" height="30" as="geometry" />
        </mxCell>
        <mxCell id="kllssjLPhVET7LkKiRfW-52" value="+ void setrole(String, String)" style="text;html=1;align=center;verticalAlign=middle;resizable=0;points=[];autosize=1;strokeColor=none;fillColor=none;" vertex="1" parent="kllssjLPhVET7LkKiRfW-39">
          <mxGeometry y="360" width="320" height="30" as="geometry" />
        </mxCell>
        <mxCell id="kllssjLPhVET7LkKiRfW-53" value="+ boolean doesUserExist(String)" style="text;html=1;align=center;verticalAlign=middle;resizable=0;points=[];autosize=1;strokeColor=none;fillColor=none;" vertex="1" parent="kllssjLPhVET7LkKiRfW-39">
          <mxGeometry y="390" width="320" height="30" as="geometry" />
        </mxCell>
      </root>
    </mxGraphModel>
  </diagram>
</mxfile>
